
        <svg xmlns="http://www.w3.org/2000/svg" xmlns:xlink="http://www.w3.org/1999/xlink" version="1.1" width="3214.285714285714" 
        height="2647.8523565624823" viewBox="0 0 3214.285714285714 2647.8523565624823">
			<rect fill="#ffffff" width="3214.285714285714" height="2647.8523565624823"/>
			<g transform="scale(10.714285714285714) translate(10, 10)">
				<defs id="SvgjsDefs3660"></defs><g id="SvgjsG3661" featureKey="symbolFeature-0" transform="matrix(1.7527385076583177,0,0,1.7527385076583177,82.07199700220936,-1.4021877973515975)" fill="#fd7014"><g xmlns="http://www.w3.org/2000/svg"><path d="M65,37.9c0-0.3-0.1-0.6-0.3-0.8L61.2,34l3-3.6c0.2-0.2,0.3-0.6,0.2-0.9c-0.1-0.3-0.3-0.6-0.5-0.7l-4.2-2   l1.9-4.3c0.1-0.3,0.1-0.6,0-0.9c-0.1-0.3-0.4-0.5-0.7-0.5l-4.6-0.7l0.5-4.3l3.7-3.7c0.4-0.4,0.4-1,0-1.4   c-13.6-13.6-35.6-13.6-49.2,0c-13.6,13.6-13.6,35.7,0,49.2c0.4,0.4,1,0.4,1.4,0l3.7-3.7l4.3-0.5l0.7,4.6c0,0.3,0.2,0.6,0.5,0.7   c0.3,0.1,0.6,0.2,0.9,0l4.3-1.9l2,4.2c0.1,0.3,0.4,0.5,0.7,0.5c0.3,0.1,0.6,0,0.9-0.2l3.5-3l3.1,3.4c0.4,0.5,1.2,0.4,1.6-0.1   l2.6-3.9l3.9,2.5c0.3,0.2,0.6,0.2,0.9,0.1c0.3-0.1,0.5-0.3,0.6-0.6l1.4-4.4l4.5,1.2c0.3,0.1,0.6,0,0.9-0.2c0.2-0.2,0.4-0.5,0.4-0.8   l0.1-4.6l4.6-0.1c0.3,0,0.6-0.2,0.8-0.4s0.2-0.6,0.2-0.9L58.2,48l4.4-1.4c0.3-0.1,0.5-0.3,0.6-0.6c0.1-0.3,0.1-0.6-0.1-0.9   l-2.5-3.9l3.9-2.6C64.8,38.5,65,38.2,65,37.9z M11.9,58.3C-0.2,45.4,0,25.2,12.6,12.6C25.1,0.1,45.4-0.2,58.3,11.9L39.6,30.6   c0,0,0,0,0,0s0,0,0,0L11.9,58.3z M39.6,39.6c-1,1-2.4,1.6-3.8,1.6c-1.1,0-2.1-0.3-3-0.9l7.5-7.5C41.7,34.9,41.5,37.7,39.6,39.6z    M58.8,40.1c-0.4,0.3-0.6,0.9-0.3,1.4l2.3,3.7l-4.1,1.3c-0.5,0.2-0.8,0.7-0.7,1.2l1.1,4.2l-4.3,0.1c-0.5,0-1,0.4-1,1l-0.1,4.3   L47.6,56c-0.5-0.1-1.1,0.2-1.2,0.7l-1.3,4.1l-3.7-2.3c-0.5-0.3-1.1-0.2-1.4,0.3l-2.4,3.6l-2.9-3.2c-0.4-0.4-1-0.4-1.4-0.1l-3.3,2.8   L28.3,58c-0.2-0.5-0.8-0.7-1.3-0.5l-4,1.7l-0.7-4.3c-0.1-0.5-0.6-0.9-1.1-0.8l-2.7,0.3l12.8-12.8c1.3,1,2.8,1.5,4.5,1.5   c2,0,3.8-0.8,5.2-2.2c2.6-2.6,2.9-6.8,0.7-9.7l12.8-12.8l-0.3,2.7c-0.1,0.5,0.3,1,0.8,1.1l4.2,0.7l-1.7,4c-0.2,0.5,0,1.1,0.5,1.3   l3.9,1.8l-2.8,3.3c-0.3,0.4-0.3,1,0.1,1.4l3.2,2.9L58.8,40.1z"></path><path d="M49.4,13.3c0.5,0.3,1.1,0.1,1.4-0.3c0.3-0.5,0.1-1.1-0.3-1.4c-11.2-6.7-25.4-5-34.6,4.2   c-0.4,0.4-0.4,1,0,1.4c0.4,0.4,1,0.4,1.4,0C25.8,8.7,39,7,49.4,13.3z"></path></g></g><g id="SvgjsG3662" featureKey="nameFeature-0" transform="matrix(1.3318112285204644,0,0,1.3318112285204644,-2.663622457040929,113.03501095092432)" fill="#393e46"><path d="M2.48 40 c-0.28 0 -0.48 -0.24 -0.48 -0.52 l0 -23.96 c0 -0.28 0.2 -0.52 0.48 -0.52 l9.8 0 c3.04 0 5.44 0.76 7.12 2.32 c2.48 2.24 3.32 6.48 2.12 9.6 c-0.44 1.12 -1.2 2.16 -2.16 2.92 c-3.24 2.52 -7.28 2.28 -11.16 2.28 l0 7.36 c0 0.28 -0.24 0.52 -0.52 0.52 l-5.2 0 z M8.2 26.560000000000002 c0 0 5.04 0.56 6.8 -0.6 c0.68 -0.44 1.08 -1.52 1.08 -2.32 c-0.04 -0.88 -0.48 -1.8 -1.2 -2.36 c-0.76 -0.64 -2.64 -0.84 -3.6 -0.84 l-3.08 0.08 l0 6.04 z M26.64 40 c-0.32 0 -0.52 -0.24 -0.52 -0.52 l0 -23.96 c0 -0.28 0.2 -0.52 0.52 -0.52 l9.76 0 c3.04 0 5.44 0.76 7.12 2.32 c2.48 2.24 3.32 6.48 2.12 9.6 c-0.44 1.12 -1.2 2.16 -2.16 2.92 c-0.56 0.44 -1.16 0.76 -1.76 1.08 c1.72 2.72 4.32 8.24 4.32 8.24 c0.04 0.08 0.12 0.2 0.12 0.32 c0 0.28 -0.24 0.52 -0.52 0.52 l-5.92 0 c-0.16 0 -0.36 -0.12 -0.44 -0.28 l-3.48 -7.64 c-1.24 0.08 -2.2 0.04 -3.48 0.04 l0 7.36 c0 0.28 -0.24 0.52 -0.52 0.52 l-5.16 0 z M32.32 26.560000000000002 c0 0 5.04 0.56 6.8 -0.6 c0.68 -0.44 1.08 -1.52 1.08 -2.32 c-0.04 -0.88 -0.48 -1.8 -1.2 -2.36 c-0.76 -0.64 -2.64 -0.84 -3.6 -0.84 l-3.08 0.08 l0 6.04 z M63.080000000000005 40 c-2.4 0 -4.6 -0.56 -6.52 -1.68 c-1.96 -1.12 -3.52 -2.72 -4.68 -4.64 c-1.12 -1.96 -1.68 -4.2 -1.68 -6.6 c0 -2.36 0.56 -4.56 1.68 -6.52 c1.16 -1.96 2.68 -3.52 4.64 -4.64 s4.16 -1.68 6.56 -1.68 c2.36 0 4.56 0.56 6.52 1.68 s3.52 2.68 4.64 4.64 c1.16 1.96 1.72 4.16 1.72 6.52 c0 2.4 -0.56 4.6 -1.72 6.56 c-1.12 1.96 -2.68 3.52 -4.64 4.68 c-1.96 1.12 -4.16 1.68 -6.52 1.68 z M63.160000000000004 34.24 c1.16 0 2.24 -0.32 3.2 -0.92 c1 -0.64 1.8 -1.48 2.36 -2.6 c0.6 -1.08 0.88 -2.32 0.88 -3.64 c0 -1.28 -0.28 -2.52 -0.88 -3.6 c-0.56 -1.08 -1.36 -1.92 -2.36 -2.56 c-0.96 -0.6 -2.04 -0.92 -3.2 -0.92 c-1.2 0 -2.28 0.32 -3.28 0.92 c-1.04 0.64 -1.84 1.48 -2.44 2.56 c-0.6 1.12 -0.88 2.32 -0.88 3.6 c0 1.32 0.28 2.56 0.88 3.64 c0.64 1.08 1.44 1.96 2.44 2.56 c1 0.64 2.08 0.96 3.28 0.96 z M84.80000000000001 40 c-3.12 0 -5.8 -1.32 -7.92 -3.92 c-0.16 -0.16 -0.16 -0.4 -0.04 -0.6 l2.4 -3.84 c0.08 -0.12 0.24 -0.24 0.4 -0.24 s0.32 0.04 0.4 0.16 c0.76 0.84 1.56 1.48 2.36 1.88 c0.76 0.44 1.48 0.64 2.12 0.64 c0.76 0 1.28 -0.2 1.68 -0.64 c0.4 -0.48 0.6 -1.12 0.6 -2 l0 -2.6 c-0.04 0 -0.04 0 -0.04 0.04 l0 -13.6 c0 -0.28 0.24 -0.52 0.52 -0.52 l5.24 0 c0.28 0 0.52 0.24 0.52 0.52 l0 16.28 c0 2.64 -0.76 4.72 -2.2 6.2 c-1.48 1.48 -3.48 2.24 -6.04 2.24 z M97.04 40 l0 -23.96 c0 -1 0.2 -1.2 0.52 -1.2 l17.52 0 c0.28 0 0.52 0.2 0.52 0.48 l0 4.52 c0 0.28 -0.24 0.52 -0.52 0.52 l-11.84 0 l0 4.16 l7.48 0 c0.28 0 0.52 0.24 0.52 0.52 l0 4.48 c0 0.28 -0.24 0.52 -0.52 0.52 l-7.48 0 l0 4.28 l11.8 0 c0.28 0 0.52 0.24 0.52 0.52 l0 4.48 c0 0.28 -0.24 0.52 -0.52 0.52 l-17.48 0 c-0.32 0 -0.52 -0.24 -0.52 0.16 z M132.20000000000002 40 c-2.36 0 -4.52 -0.56 -6.44 -1.68 c-1.92 -1.16 -3.44 -2.72 -4.52 -4.68 s-1.64 -4.16 -1.64 -6.6 c0 -2.36 0.56 -4.56 1.68 -6.52 c1.12 -1.92 2.68 -3.48 4.6 -4.6 c1.96 -1.12 4.16 -1.68 6.48 -1.68 c1.76 0 3.48 0.4 5.16 1.12 c1.68 0.76 3.12 1.76 4.32 3.04 c0.16 0.2 0.16 0.48 0 0.68 l-3.8 3.12 c-0.12 0.12 -0.24 0.2 -0.4 0.2 s-0.32 -0.08 -0.4 -0.2 c-2.04 -2.48 -5.32 -3 -8.08 -1.28 c-2.4 1.48 -3.28 4.2 -3.16 6.92 c0.12 2.76 2.12 5.12 4.76 5.92 c2.4 0.72 4.76 0.16 6.48 -1.68 c0.12 -0.08 0.24 -0.16 0.4 -0.12 c0.16 0 0.28 0.04 0.36 0.16 l3.88 2.72 c0.16 0.2 0.16 0.48 0 0.68 c-1.28 1.36 -2.8 2.48 -4.48 3.28 c-1.72 0.8 -3.48 1.2 -5.2 1.2 z M152.48 40 c-0.28 0 -0.48 -0.24 -0.48 -0.52 l0 -18.88 l-5.48 0 c-0.28 0 -0.52 -0.2 -0.52 -0.48 l0 -4.6 c0 -0.28 0.24 -0.52 0.52 -0.52 l17.16 0 c0.32 0 0.52 0.24 0.52 0.52 l0 4.6 c0 0.28 -0.2 0.48 -0.52 0.48 l-5.48 0 l0 18.88 c0 0.28 -0.24 0.52 -0.52 0.52 l-5.2 0 z M183.04 40 c-0.16 0 -0.32 -0.08 -0.44 -0.24 c-0.08 -0.16 -0.08 -0.32 -0.04 -0.48 l7.16 -18.96 l-10.2 0 c-0.28 0 -0.52 -0.24 -0.52 -0.52 l0 -4.56 c0 -0.28 0.24 -0.52 0.52 -0.52 l16.88 0 c0.28 0 0.52 0.24 0.52 0.52 l0 3.92 c0 0.08 -0.04 0.16 -0.04 0.2 l-7.8 20.32 c-0.08 0.2 -0.28 0.32 -0.48 0.32 l-5.56 0 z M206.48000000000002 40 c-0.32 0 -0.52 -0.24 -0.52 -0.52 l0 -17.68 l-3.48 0.68 c-0.28 0 -0.52 -0.24 -0.52 -0.52 l-1.04 -4.64 c0 -0.28 0.24 -0.52 0.52 -0.52 l10.28 -2.08 c0.28 0 0.52 0.24 0.52 0.52 l0 24.24 c0 0.28 -0.24 0.52 -0.52 0.52 l-5.24 0 z"></path></g><g id="SvgjsG3663" featureKey="nameFeature-1" transform="matrix(0.9512798572267352,0,0,0.9512798572267352,-1.9010170018630488,162.45377505082197)" fill="#393e46"><path d="M10.28 40 c-0.24 0 -0.44 -0.16 -0.48 -0.36 l-7.76 -23.96 c-0.08 -0.16 -0.04 -0.32 0.08 -0.48 c0.08 -0.12 0.24 -0.2 0.4 -0.2 l5.6 0 c0.2 0 0.44 0.16 0.48 0.36 l4.16 14.44 l3.8 -13.72 c0.04 -0.24 0.24 -0.4 0.48 -0.4 l5.08 0 c0.24 0 0.44 0.16 0.52 0.4 l3.84 13.72 l4.08 -14.44 c0.08 -0.2 0.28 -0.36 0.52 -0.36 l5.36 0 c0.16 0 0.32 0.08 0.4 0.2 c0.12 0.16 0.12 0.32 0.08 0.48 l-7.8 23.96 c-0.08 0.2 -0.24 0.36 -0.48 0.36 l-4.68 0 c-0.24 0 -0.44 -0.16 -0.48 -0.36 l-4 -14.2 l-4.08 14.2 c-0.04 0.2 -0.24 0.36 -0.48 0.36 l-4.64 0 z M51.440000000000005 40 c-2.4 0 -4.6 -0.56 -6.52 -1.68 c-1.96 -1.12 -3.52 -2.72 -4.68 -4.64 c-1.12 -1.96 -1.68 -4.2 -1.68 -6.6 c0 -2.36 0.56 -4.56 1.68 -6.52 c1.16 -1.96 2.68 -3.52 4.64 -4.64 s4.16 -1.68 6.56 -1.68 c2.36 0 4.56 0.56 6.52 1.68 s3.52 2.68 4.64 4.64 c1.16 1.96 1.72 4.16 1.72 6.52 c0 2.4 -0.56 4.6 -1.72 6.56 c-1.12 1.96 -2.68 3.52 -4.64 4.68 c-1.96 1.12 -4.16 1.68 -6.52 1.68 z M51.52 34.24 c1.16 0 2.24 -0.32 3.2 -0.92 c1 -0.64 1.8 -1.48 2.36 -2.6 c0.6 -1.08 0.88 -2.32 0.88 -3.64 c0 -1.28 -0.28 -2.52 -0.88 -3.6 c-0.56 -1.08 -1.36 -1.92 -2.36 -2.56 c-0.96 -0.6 -2.04 -0.92 -3.2 -0.92 c-1.2 0 -2.28 0.32 -3.28 0.92 c-1.04 0.64 -1.84 1.48 -2.44 2.56 c-0.6 1.12 -0.88 2.32 -0.88 3.6 c0 1.32 0.28 2.56 0.88 3.64 c0.64 1.08 1.44 1.96 2.44 2.56 c1 0.64 2.08 0.96 3.28 0.96 z M80.8 40 c-2.4 0 -4.6 -0.56 -6.52 -1.68 c-1.96 -1.12 -3.52 -2.72 -4.68 -4.64 c-1.12 -1.96 -1.68 -4.2 -1.68 -6.6 c0 -2.36 0.56 -4.56 1.68 -6.52 c1.16 -1.96 2.68 -3.52 4.64 -4.64 s4.16 -1.68 6.56 -1.68 c2.36 0 4.56 0.56 6.52 1.68 s3.52 2.68 4.64 4.64 c1.16 1.96 1.72 4.16 1.72 6.52 c0 2.4 -0.56 4.6 -1.72 6.56 c-1.12 1.96 -2.68 3.52 -4.64 4.68 c-1.96 1.12 -4.16 1.68 -6.52 1.68 z M80.88 34.24 c1.16 0 2.24 -0.32 3.2 -0.92 c1 -0.64 1.8 -1.48 2.36 -2.6 c0.6 -1.08 0.88 -2.32 0.88 -3.64 c0 -1.28 -0.28 -2.52 -0.88 -3.6 c-0.56 -1.08 -1.36 -1.92 -2.36 -2.56 c-0.96 -0.6 -2.04 -0.92 -3.2 -0.92 c-1.2 0 -2.28 0.32 -3.28 0.92 c-1.04 0.64 -1.84 1.48 -2.44 2.56 c-0.6 1.12 -0.88 2.32 -0.88 3.6 c0 1.32 0.28 2.56 0.88 3.64 c0.64 1.08 1.44 1.96 2.44 2.56 c1 0.64 2.08 0.96 3.28 0.96 z M98.2 40 c-0.32 0 -0.52 -0.24 -0.52 -0.52 l0 -23.96 c0 -0.28 0.2 -0.52 0.52 -0.52 l9.08 0 c2.4 0 4.6 0.52 6.52 1.6 c1.92 1.04 3.4 2.52 4.48 4.44 c1.04 1.88 1.6 4.04 1.6 6.44 c0 2.44 -0.56 4.6 -1.64 6.48 c-1.08 1.92 -2.6 3.4 -4.56 4.44 c-1.92 1.08 -4.16 1.6 -6.6 1.6 l-8.88 0 z M103.88000000000001 34.4 l3.52 0 c1.16 0 2.24 -0.28 3.16 -0.84 c0.92 -0.6 1.68 -1.4 2.2 -2.44 s0.8 -2.24 0.8 -3.6 c0 -1.32 -0.28 -2.56 -0.84 -3.6 c-0.56 -1.08 -1.32 -1.88 -2.28 -2.48 c-0.96 -0.56 -2.08 -0.88 -3.28 -0.88 l-3.28 0 l0 13.84 z M130.16 40 c-0.24 0 -0.44 -0.16 -0.48 -0.36 l-7.76 -23.96 c-0.08 -0.16 -0.04 -0.32 0.08 -0.48 c0.08 -0.12 0.24 -0.2 0.4 -0.2 l5.6 0 c0.2 0 0.44 0.16 0.48 0.36 l4.16 14.44 l3.8 -13.72 c0.04 -0.24 0.24 -0.4 0.48 -0.4 l5.08 0 c0.24 0 0.44 0.16 0.52 0.4 l3.84 13.72 l4.08 -14.44 c0.08 -0.2 0.28 -0.36 0.52 -0.36 l5.36 0 c0.16 0 0.32 0.08 0.4 0.2 c0.12 0.16 0.12 0.32 0.08 0.48 l-7.8 23.96 c-0.08 0.2 -0.24 0.36 -0.48 0.36 l-4.68 0 c-0.24 0 -0.44 -0.16 -0.48 -0.36 l-4 -14.2 l-4.08 14.2 c-0.04 0.2 -0.24 0.36 -0.48 0.36 l-4.64 0 z M171.32 40 c-2.4 0 -4.6 -0.56 -6.52 -1.68 c-1.96 -1.12 -3.52 -2.72 -4.68 -4.64 c-1.12 -1.96 -1.68 -4.2 -1.68 -6.6 c0 -2.36 0.56 -4.56 1.68 -6.52 c1.16 -1.96 2.68 -3.52 4.64 -4.64 s4.16 -1.68 6.56 -1.68 c2.36 0 4.56 0.56 6.52 1.68 s3.52 2.68 4.64 4.64 c1.16 1.96 1.72 4.16 1.72 6.52 c0 2.4 -0.56 4.6 -1.72 6.56 c-1.12 1.96 -2.68 3.52 -4.64 4.68 c-1.96 1.12 -4.16 1.68 -6.52 1.68 z M171.4 34.24 c1.16 0 2.24 -0.32 3.2 -0.92 c1 -0.64 1.8 -1.48 2.36 -2.6 c0.6 -1.08 0.88 -2.32 0.88 -3.64 c0 -1.28 -0.28 -2.52 -0.88 -3.6 c-0.56 -1.08 -1.36 -1.92 -2.36 -2.56 c-0.96 -0.6 -2.04 -0.92 -3.2 -0.92 c-1.2 0 -2.28 0.32 -3.28 0.92 c-1.04 0.64 -1.84 1.48 -2.44 2.56 c-0.6 1.12 -0.88 2.32 -0.88 3.6 c0 1.32 0.28 2.56 0.88 3.64 c0.64 1.08 1.44 1.96 2.44 2.56 c1 0.64 2.08 0.96 3.28 0.96 z M189.52 40 c-0.32 0 -0.52 -0.24 -0.52 -0.52 l0 -23.96 c0 -0.28 0.2 -0.52 0.52 -0.52 l9.76 0 c3.04 0 5.44 0.76 7.12 2.32 c2.48 2.24 3.32 6.48 2.12 9.6 c-0.44 1.12 -1.2 2.16 -2.16 2.92 c-0.56 0.44 -1.16 0.76 -1.76 1.08 c1.72 2.72 4.32 8.24 4.32 8.24 c0.04 0.08 0.12 0.2 0.12 0.32 c0 0.28 -0.24 0.52 -0.52 0.52 l-5.92 0 c-0.16 0 -0.36 -0.12 -0.44 -0.28 l-3.48 -7.64 c-1.24 0.08 -2.2 0.04 -3.48 0.04 l0 7.36 c0 0.28 -0.24 0.52 -0.52 0.52 l-5.16 0 z M195.2 26.560000000000002 c0 0 5.04 0.56 6.8 -0.6 c0.68 -0.44 1.08 -1.52 1.08 -2.32 c-0.04 -0.88 -0.48 -1.8 -1.2 -2.36 c-0.76 -0.64 -2.64 -0.84 -3.6 -0.84 l-3.08 0.08 l0 6.04 z M213.60000000000002 40 c-0.28 0 -0.52 -0.24 -0.52 -0.52 l0 -23.96 c0 -0.28 0.24 -0.52 0.52 -0.52 l5.2 0 c0.28 0 0.52 0.24 0.52 0.52 l0 7.08 l7.24 -7.44 c0.12 -0.08 0.24 -0.16 0.4 -0.16 l6.04 0 c0.2 0 0.4 0.12 0.48 0.28 c0.08 0.2 0.04 0.4 -0.08 0.56 l-8.08 8.64 l9 14.68 c0.08 0.08 0.12 0.2 0.12 0.32 c0 0.28 -0.24 0.52 -0.52 0.52 l-6.24 0 c-0.16 0 -0.32 -0.08 -0.4 -0.24 l-6.6 -11.16 l-1.36 1.2 l0 9.68 c0 0.28 -0.24 0.52 -0.52 0.52 l-5.2 0 z  M238.96 40 c-0.28 0 -0.52 -0.24 -0.52 -0.52 l0 -23.96 c0 -0.28 0.24 -0.52 0.52 -0.52 l5.2 0 c0.28 0 0.52 0.24 0.52 0.52 l0 23.96 c0 0.28 -0.24 0.52 -0.52 0.52 l-5.2 0 z M249.20000000000002 40 c-0.28 0 -0.52 -0.24 -0.52 -0.52 l0 -23.96 c0 -0.28 0.24 -0.52 0.52 -0.52 l4.72 0 c0.16 0 0.32 0.08 0.44 0.2 l9.2 14.2 l0 -13.88 c0 -0.28 0.24 -0.52 0.52 -0.52 l4.92 0 c0.28 0 0.52 0.24 0.52 0.52 l0 23.96 c0 0.28 -0.24 0.52 -0.52 0.52 l-4.72 0 c-0.16 0 -0.32 -0.08 -0.44 -0.2 l-9.16 -14.12 l0 13.8 c0 0.28 -0.24 0.52 -0.52 0.52 l-4.96 0 z M286.28 40 c-2.36 0 -4.56 -0.56 -6.48 -1.68 c-1.96 -1.16 -3.48 -2.72 -4.6 -4.64 c-1.12 -1.96 -1.68 -4.2 -1.68 -6.6 s0.56 -4.6 1.72 -6.52 c1.12 -1.96 2.72 -3.52 4.68 -4.64 c2 -1.12 4.24 -1.68 6.68 -1.68 c1.76 0 3.48 0.32 5.2 1 c1.68 0.64 3.16 1.56 4.36 2.72 c0.2 0.16 0.24 0.44 0.08 0.68 l-2.92 3.84 c-0.12 0.12 -0.24 0.2 -0.4 0.24 c-0.12 0 -0.28 -0.08 -0.4 -0.16 c-0.8 -0.8 -1.72 -1.44 -2.8 -1.88 c-1.04 -0.44 -2.08 -0.68 -3.12 -0.68 c-1.24 0 -2.4 0.32 -3.4 0.92 c-1.04 0.64 -1.84 1.48 -2.44 2.56 s-0.88 2.28 -0.88 3.6 s0.28 2.56 0.88 3.64 s1.44 1.96 2.44 2.6 c1.04 0.6 2.2 0.92 3.4 0.92 c0.64 0 1.32 -0.12 2.08 -0.32 c0.64 -0.2 1.32 -0.48 1.92 -0.8 l0 -1.84 l-2.76 0 c-0.16 0 -0.28 -0.04 -0.36 -0.16 c-0.12 -0.08 -0.16 -0.2 -0.16 -0.36 l0.04 -4.48 c0 -0.28 0.24 -0.52 0.52 -0.52 l7.76 0 c0.28 0 0.52 0.24 0.52 0.52 l0 10.04 c0 0.16 -0.08 0.32 -0.24 0.44 c-1.24 0.96 -2.76 1.76 -4.52 2.32 c-1.76 0.6 -3.48 0.92 -5.12 0.92 z"></path></g><g id="SvgjsG3664" featureKey="sloganFeature-0" transform="matrix(0.4116030598595085,0,0,0.4116030598595085,59.78596641672376,218.8349682034658)" fill="#fd7014"><path d="M6.76 20 l-1.68 0 l-4.56 -14.58 l1.6 0 l3.82 12.38 l0.04 0 l3.84 -12.38 l1.74 0 l3.88 12.44 l0.02 0 l3.84 -12.44 l1.54 0 l-4.58 14.58 l-1.7 0 l-3.88 -12.52 z M26.101 20 l0 -14.58 l9.12 0 l0 1.42 l-7.58 0 l0 5.04 l6.94 0 l0 1.42 l-6.94 0 l0 5.28 l7.66 0 l0 1.42 l-9.2 0 z M54.543 20 l-5.44 0 l0 -14.58 l5.24 0 c2.64 -0.04 4.7 1.32 4.7 3.66 c0 0.34 -0.02 0.64 -0.2 1.2 c-0.08 0.28 -0.2 0.52 -0.36 0.76 c-0.3 0.48 -0.9 1.04 -1.66 1.38 c1.02 0.26 1.84 0.88 2.26 1.58 s0.6 1.4 0.6 2 c0 1.36 -0.58 2.42 -1.54 3.06 c-0.96 0.62 -2.2 0.94 -3.6 0.94 z M54.223 6.82 l-3.6 0 l0 5.08 l3.48 0 c1.14 0 1.98 -0.24 2.54 -0.74 s0.84 -1.12 0.84 -1.9 c0 -1.78 -1.6 -2.44 -3.26 -2.44 z M54.283 13.26 l-3.66 0 l0 5.34 l3.96 0 c1.58 0 3.54 -0.64 3.54 -2.7 c0 -1.26 -0.78 -1.96 -1.76 -2.3 c-0.68 -0.26 -1.34 -0.34 -2.08 -0.34 z M74.70400000000001 5.42 l1.54 0 l0 8.88 c0 1.84 -0.5 3.28 -1.44 4.3 c-0.96 1.02 -2.32 1.54 -4.06 1.54 c-1.72 0 -3.08 -0.52 -4.02 -1.56 c-0.96 -1.04 -1.44 -2.42 -1.44 -4.18 l0 -8.98 l1.52 0 l0 8.9 c0 1.54 0.44 2.72 1.16 3.38 c0.74 0.68 1.68 1 2.86 1 c1.24 0 2.2 -0.36 2.88 -1.12 c0.66 -0.76 1 -1.8 1 -3.18 l0 -8.98 z M82.80499999999999 20 l0 -14.58 l1.54 0 l0 14.58 l-1.54 0 z M91.106 20 l0 -14.58 l1.54 0 l0 13.14 l6.92 0 l0 1.44 l-8.46 0 z M104.687 20 l0 -14.58 l4.34 0 c1.12 0 2.16 0.18 3.12 0.56 c0.96 0.36 1.78 0.88 2.44 1.52 c1.34 1.3 2.14 3.14 2.14 5.18 c0 1.06 -0.2 2.06 -0.6 2.98 s-0.96 1.68 -1.64 2.32 c-1.38 1.26 -3.34 2.02 -5.46 2.02 l-4.34 0 z M106.227 6.859999999999999 l0 11.7 l2.74 0 c1.22 0 2.3 -0.26 3.22 -0.76 c0.94 -0.5 1.68 -1.18 2.18 -2.06 c0.52 -0.88 0.78 -1.9 0.78 -3.02 c0 -1.66 -0.62 -3.14 -1.68 -4.2 c-1.04 -1.04 -2.66 -1.66 -4.5 -1.66 l-2.74 0 z M130.389 20 l0 -14.58 l4.34 0 c1.12 0 2.16 0.18 3.12 0.56 c0.96 0.36 1.78 0.88 2.44 1.52 c1.34 1.3 2.14 3.14 2.14 5.18 c0 1.06 -0.2 2.06 -0.6 2.98 s-0.96 1.68 -1.64 2.32 c-1.38 1.26 -3.34 2.02 -5.46 2.02 l-4.34 0 z M131.929 6.859999999999999 l0 11.7 l2.74 0 c1.22 0 2.3 -0.26 3.22 -0.76 c0.94 -0.5 1.68 -1.18 2.18 -2.06 c0.52 -0.88 0.78 -1.9 0.78 -3.02 c0 -1.66 -0.62 -3.14 -1.68 -4.2 c-1.04 -1.04 -2.66 -1.66 -4.5 -1.66 l-2.74 0 z M158.85 20 l-1.86 0 l-4.32 -5.9 l-2.96 0 l0 5.9 l-1.54 0 l0 -14.58 l5.06 0 c1.72 0 3.1 0.48 3.9 1.28 s1.22 1.8 1.22 2.98 c0 2.46 -1.84 3.88 -4 4.16 z M149.71 6.859999999999999 l0 5.84 l3.38 0 c1.28 0 2.28 -0.36 2.86 -0.94 c0.56 -0.56 0.84 -1.26 0.84 -2.04 c0 -1.44 -0.88 -2.86 -3.66 -2.86 l-3.42 0 z M164.29100000000003 20 l0 -14.58 l9.12 0 l0 1.42 l-7.58 0 l0 5.04 l6.94 0 l0 1.42 l-6.94 0 l0 5.28 l7.66 0 l0 1.42 l-9.2 0 z M190.112 20 l-1.6 -3.72 l-7.94 0 l-1.6 3.72 l-1.56 0 l6.28 -14.58 l1.74 0 l6.3 14.58 l-1.62 0 z M187.93200000000002 14.879999999999999 l-3.4 -7.88 l-3.38 7.88 l6.78 0 z M209.553 5.42 l2.2 0 l0 14.58 l-1.52 0 l0 -12.5 l0 0 l-5.42 12.5 l-1.38 0 l-5.38 -12.4 l0 0 l0 12.4 l-1.52 0 l0 -14.58 l2.18 0 l5.44 12.5 z M222.574 20.14 c-1.38 0 -2.7 -0.52 -3.56 -1.28 c-0.9 -0.78 -1.48 -1.82 -1.6 -2.84 l1.44 -0.4 c0.16 0.86 0.6 1.58 1.32 2.18 c0.7 0.6 1.5 0.9 2.4 0.9 c0.84 0 1.62 -0.2 2.24 -0.64 c0.62 -0.42 1.02 -1.14 1.02 -2.02 c0 -1.02 -0.54 -1.68 -1.22 -2.08 c-0.48 -0.28 -0.9 -0.4 -1.38 -0.5 l-1.92 -0.38 c-0.4 -0.08 -0.82 -0.22 -1.28 -0.42 c-0.46 -0.22 -0.86 -0.48 -1.2 -0.82 c-0.68 -0.66 -1.02 -1.5 -1.02 -2.52 c0 -0.8 0.22 -1.52 0.66 -2.14 c0.44 -0.64 1 -1.1 1.7 -1.44 c0.7 -0.32 1.44 -0.48 2.26 -0.48 c3.14 0 4.52 1.94 4.82 3.5 l-1.4 0.44 c-0.24 -1.04 -1.18 -2.52 -3.44 -2.52 c-1.56 -0.04 -3.08 1.06 -3.06 2.58 c0 1.12 0.7 2.02 2.12 2.3 l1.84 0.36 c1.24 0.24 2.2 0.66 2.84 1.28 c0.44 0.4 0.76 0.86 0.96 1.34 c0.2 0.5 0.3 0.94 0.3 1.34 c0.02 2.56 -2.14 4.32 -4.84 4.26 z M245.856 20 l-1.68 0 l-4.56 -14.58 l1.6 0 l3.82 12.38 l0.04 0 l3.84 -12.38 l1.74 0 l3.88 12.44 l0.02 0 l3.84 -12.44 l1.54 0 l-4.58 14.58 l-1.7 0 l-3.88 -12.52 z M265.197 20 l0 -14.58 l1.54 0 l0 14.58 l-1.54 0 z M278.278 6.859999999999999 l0 13.14 l-1.52 0 l0 -13.14 l-4.88 0 l0 -1.44 l11.28 0 l0 1.44 l-4.88 0 z M298.139 20 l0 -6.68 l-8.3 0 l0 6.68 l-1.54 0 l0 -14.58 l1.54 0 l0 6.46 l8.3 0 l0 -6.46 l1.54 0 l0 14.58 l-1.54 0 z M319.101 20 l-1.68 0 l-4.56 -14.58 l1.6 0 l3.82 12.38 l0.04 0 l3.84 -12.38 l1.74 0 l3.88 12.44 l0.02 0 l3.84 -12.44 l1.54 0 l-4.58 14.58 l-1.7 0 l-3.88 -12.52 z M352.08200000000005 12.68 c0 1.38 -0.32 2.64 -0.94 3.78 c-0.64 1.14 -1.52 2.04 -2.64 2.7 c-1.14 0.66 -2.38 1 -3.78 1 c-1.02 0 -1.98 -0.2 -2.9 -0.58 c-0.9 -0.38 -1.68 -0.9 -2.32 -1.58 c-0.64 -0.64 -1.14 -1.42 -1.52 -2.34 c-0.36 -0.92 -0.56 -1.88 -0.56 -2.9 c0 -1.38 0.32 -2.64 0.96 -3.78 c0.62 -1.14 1.5 -2.06 2.64 -2.72 c1.12 -0.66 2.38 -0.98 3.76 -0.98 c1.02 0 1.98 0.18 2.9 0.56 c0.9 0.4 1.68 0.92 2.32 1.56 c0.64 0.68 1.16 1.46 1.52 2.36 c0.38 0.92 0.56 1.88 0.56 2.92 z M350.502 12.76 c0 -1.64 -0.6 -3.16 -1.6 -4.26 s-2.5 -1.8 -4.18 -1.8 c-1.08 0 -2.06 0.28 -2.94 0.8 c-0.88 0.56 -1.56 1.28 -2.04 2.18 c-0.48 0.92 -0.72 1.92 -0.72 3 c0 1.62 0.6 3.16 1.6 4.24 c1 1.1 2.5 1.8 4.16 1.8 c1.08 0 2.06 -0.28 2.94 -0.82 c0.9 -0.52 1.58 -1.26 2.06 -2.16 s0.72 -1.9 0.72 -2.98 z M371.463 12.68 c0 1.38 -0.32 2.64 -0.94 3.78 c-0.64 1.14 -1.52 2.04 -2.64 2.7 c-1.14 0.66 -2.38 1 -3.78 1 c-1.02 0 -1.98 -0.2 -2.9 -0.58 c-0.9 -0.38 -1.68 -0.9 -2.32 -1.58 c-0.64 -0.64 -1.14 -1.42 -1.52 -2.34 c-0.36 -0.92 -0.56 -1.88 -0.56 -2.9 c0 -1.38 0.32 -2.64 0.96 -3.78 c0.62 -1.14 1.5 -2.06 2.64 -2.72 c1.12 -0.66 2.38 -0.98 3.76 -0.98 c1.02 0 1.98 0.18 2.9 0.56 c0.9 0.4 1.68 0.92 2.32 1.56 c0.64 0.68 1.16 1.46 1.52 2.36 c0.38 0.92 0.56 1.88 0.56 2.92 z M369.883 12.76 c0 -1.64 -0.6 -3.16 -1.6 -4.26 s-2.5 -1.8 -4.18 -1.8 c-1.08 0 -2.06 0.28 -2.94 0.8 c-0.88 0.56 -1.56 1.28 -2.04 2.18 c-0.48 0.92 -0.72 1.92 -0.72 3 c0 1.62 0.6 3.16 1.6 4.24 c1 1.1 2.5 1.8 4.16 1.8 c1.08 0 2.06 -0.28 2.94 -0.82 c0.9 -0.52 1.58 -1.26 2.06 -2.16 s0.72 -1.9 0.72 -2.98 z M377.20399999999995 20 l0 -14.58 l4.34 0 c1.12 0 2.16 0.18 3.12 0.56 c0.96 0.36 1.78 0.88 2.44 1.52 c1.34 1.3 2.14 3.14 2.14 5.18 c0 1.06 -0.2 2.06 -0.6 2.98 s-0.96 1.68 -1.64 2.32 c-1.38 1.26 -3.34 2.02 -5.46 2.02 l-4.34 0 z M378.74399999999997 6.859999999999999 l0 11.7 l2.74 0 c1.22 0 2.3 -0.26 3.22 -0.76 c0.94 -0.5 1.68 -1.18 2.18 -2.06 c0.52 -0.88 0.78 -1.9 0.78 -3.02 c0 -1.66 -0.62 -3.14 -1.68 -4.2 c-1.04 -1.04 -2.66 -1.66 -4.5 -1.66 l-2.74 0 z"></path></g>
			</g>
		</svg>
	